# xmcd CD database file
#
# Track frame offsets:
#	183
#	13398
#	27273
#	40663
#	54395
#	67750
#	83065
#	96978
#	110380
#	123188
#
# Disc length: 1842 seconds
#
# Revision: 0
# Processed by: cddbd v1.5PL3 Copyright (c) Steve Scherf et al.
# Submitted via: CDex 1.51
#
DISCID=7507300a
DTITLE=Duke Ellington - The Unforgetable Vol 1
DYEAR=1900
DGENRE=Jazz
TTITLE0=Air Conditioned Jungle
TTITLE1=Three Cent Stomp
TTITLE2=Progressive Gavotte
TTITLE3=Take It Easy
TTITLE4=How High The Moon
TTITLE5=Singin' In The Rain
TTITLE6=Don't Get Around Much Anymore
TTITLE7=I Could Get A Man
TTITLE8=I Can't Believe That You're In Love With Me
TTITLE9=On A Turquoise Cloud
EXTD=
EXTT0=
EXTT1=
EXTT2=
EXTT3=
EXTT4=
EXTT5=
EXTT6=
EXTT7=
EXTT8=
EXTT9=
PLAYORDER=
